<svg width="917" height="141" viewBox="0 0 917 141" fill="none" xmlns="http://www.w3.org/2000/svg">
<path d="M22.176 128.908H53.504V0.4282H4.752V28.4122H22.176V128.908Z" fill="#5A5A5A" fill-opacity="0.1"/>
<path d="M390.723 108.796C394.713 105.628 396.531 104.162 396.179 104.396C407.678 94.8922 416.713 87.0895 423.283 80.9882C429.971 74.8869 435.603 68.4922 440.179 61.8042C444.755 55.1162 447.043 48.6042 447.043 42.2682C447.043 37.4575 445.929 33.7029 443.699 31.0042C441.47 28.3055 438.126 26.9562 433.667 26.9562C429.209 26.9562 425.689 28.6575 423.107 32.0602C420.643 35.3455 419.411 40.0389 419.411 46.1402H390.371C390.606 36.1669 392.718 27.8362 396.707 21.1482C400.814 14.4602 406.153 9.5322 412.723 6.3642C419.411 3.19619 426.803 1.61219 434.899 1.61219C448.862 1.61219 459.363 5.19086 466.403 12.3482C473.561 19.5055 477.139 28.8335 477.139 40.3322C477.139 52.8869 472.857 64.5615 464.291 75.3562C455.726 86.0335 444.814 96.4762 431.555 106.684H479.075V131.148H390.723V108.796Z" fill="#5A5A5A" fill-opacity="0.1"/>
<path d="M817.675 40.6842H847.067C847.595 33.6442 851.115 26.6042 860.795 26.6042C868.891 26.6042 873.995 31.3562 873.995 39.9802C873.995 51.5962 864.139 54.0602 853.931 54.0602H848.299V78.5242H853.931C869.595 78.5242 876.459 83.1002 876.459 94.5402C876.459 102.988 871.355 108.972 862.027 108.972C850.939 108.972 845.483 102.284 845.307 92.2522H816.091C816.971 121.292 836.331 133.964 863.083 133.964C890.011 133.964 905.499 118.476 905.499 96.8282C905.499 79.9322 896.699 70.0762 883.851 65.8522V65.1482C892.651 62.1562 903.211 53.1802 903.211 36.2842C903.211 16.9242 888.603 1.4362 861.499 1.4362C835.275 1.4362 818.731 15.3402 817.675 40.6842Z" fill="#5A5A5A" fill-opacity="0.1"/>
</svg>
