<svg width="1440" height="489" viewBox="0 0 1440 489" fill="none" xmlns="http://www.w3.org/2000/svg">
<rect x="377" y="35.9082" width="1063" height="453" fill="#5B5B5B"/>
<rect y="35.9082" width="805" height="390" fill="#A9C2BE"/>
<path d="M0 35.9082V95.5484M0 425.908V359.398M143.091 35.9082V95.5484M143.091 425.908V359.398M284.273 35.9082V227.108M284.273 425.908V359.398M428 35.9082V159.866M428 425.908V359.398M0 95.5484H143.091M0 95.5484V159.866M143.091 95.5484V227.108M0 159.866V292.887M0 159.866H72.4993M428 159.866V292.887M428 159.866H212.41M0 292.887H72.4993M0 292.887V359.398M428 292.887H212.41M428 292.887V359.398M143.091 227.108H284.273M143.091 227.108V359.398M284.273 227.108V359.398M212.41 35.9082V159.866M212.41 159.866H72.4993M72.4993 159.866V292.887M72.4993 292.887H212.41M0 359.398H143.091M212.41 292.887V425.908M284.273 359.398H428" stroke="#5A5A5A" stroke-opacity="0.2"/>
<rect x="1205" y="0.908203" width="149" height="110" fill="#FF9619"/>
<path d="M1217.5 74.9082V67.9032H1216.42V67.0932H1217.5V66.8832C1217.5 65.9232 1217.71 65.1732 1218.12 64.6332C1218.54 64.0832 1219.1 63.8082 1219.8 63.8082C1220.1 63.8082 1220.39 63.8532 1220.68 63.9432C1220.98 64.0332 1221.24 64.1532 1221.45 64.3032L1221.13 65.0382C1220.83 64.8082 1220.45 64.6932 1219.99 64.6932C1219.52 64.6932 1219.16 64.8782 1218.9 65.2482C1218.65 65.6182 1218.52 66.1532 1218.52 66.8532V67.0932H1220.68V67.9032H1218.52V74.9082H1217.5ZM1225.68 71.6832V67.0932H1226.7V71.5032C1226.7 73.2732 1227.3 74.1582 1228.51 74.1582C1229.11 74.1582 1229.67 73.9632 1230.19 73.5732C1230.72 73.1832 1231.1 72.6632 1231.33 72.0132V67.0932H1232.35V73.6782C1232.35 73.9482 1232.47 74.0882 1232.71 74.0982V74.9082C1232.59 74.9282 1232.5 74.9382 1232.43 74.9382C1232.37 74.9382 1232.3 74.9382 1232.23 74.9382C1232.02 74.9182 1231.84 74.8382 1231.69 74.6982C1231.55 74.5582 1231.48 74.3882 1231.48 74.1882L1231.45 73.1382C1231.11 73.7482 1230.65 74.2232 1230.06 74.5632C1229.48 74.8932 1228.85 75.0582 1228.17 75.0582C1226.51 75.0582 1225.68 73.9332 1225.68 71.6832ZM1242.23 67.9932C1241.55 68.0132 1240.95 68.2032 1240.43 68.5632C1239.92 68.9232 1239.56 69.4182 1239.35 70.0482V74.9082H1238.33V67.0932H1239.29V68.9682C1239.56 68.4182 1239.92 67.9732 1240.36 67.6332C1240.81 67.2932 1241.28 67.1032 1241.78 67.0632C1241.88 67.0532 1241.97 67.0482 1242.04 67.0482C1242.11 67.0482 1242.17 67.0532 1242.23 67.0632V67.9932ZM1253.84 74.9082H1252.82V70.5432C1252.82 69.6232 1252.68 68.9532 1252.4 68.5332C1252.13 68.1032 1251.71 67.8882 1251.14 67.8882C1250.74 67.8882 1250.34 67.9882 1249.95 68.1882C1249.56 68.3782 1249.22 68.6432 1248.92 68.9832C1248.63 69.3132 1248.42 69.6932 1248.29 70.1232V74.9082H1247.27V67.0932H1248.2V68.8632C1248.51 68.2932 1248.96 67.8332 1249.56 67.4832C1250.16 67.1332 1250.81 66.9582 1251.51 66.9582C1252.09 66.9582 1252.55 67.0982 1252.89 67.3782C1253.23 67.6482 1253.47 68.0382 1253.61 68.5482C1253.76 69.0482 1253.84 69.6432 1253.84 70.3332V74.9082ZM1259.69 65.4582V63.9582H1260.71V65.4582H1259.69ZM1259.69 74.9082V67.0932H1260.71V74.9082H1259.69ZM1270.38 74.5332C1270.26 74.5832 1270.04 74.6732 1269.72 74.8032C1269.4 74.9332 1269.03 74.9982 1268.61 74.9982C1268.17 74.9982 1267.78 74.8732 1267.45 74.6232C1267.12 74.3732 1266.96 73.9982 1266.96 73.4982V67.9032H1265.88V67.0932H1266.96V64.4532H1267.98V67.0932H1269.78V67.9032H1267.98V73.2132C1268 73.5032 1268.1 73.7182 1268.28 73.8582C1268.47 73.9882 1268.68 74.0532 1268.92 74.0532C1269.2 74.0532 1269.45 74.0082 1269.67 73.9182C1269.9 73.8182 1270.05 73.7482 1270.11 73.7082L1270.38 74.5332ZM1275.25 71.6832V67.0932H1276.27V71.5032C1276.27 73.2732 1276.88 74.1582 1278.09 74.1582C1278.69 74.1582 1279.25 73.9632 1279.77 73.5732C1280.3 73.1832 1280.68 72.6632 1280.91 72.0132V67.0932H1281.93V73.6782C1281.93 73.9482 1282.05 74.0882 1282.29 74.0982V74.9082C1282.17 74.9282 1282.07 74.9382 1282 74.9382C1281.94 74.9382 1281.88 74.9382 1281.81 74.9382C1281.6 74.9182 1281.42 74.8382 1281.27 74.6982C1281.13 74.5582 1281.06 74.3882 1281.06 74.1882L1281.03 73.1382C1280.69 73.7482 1280.22 74.2232 1279.63 74.5632C1279.05 74.8932 1278.42 75.0582 1277.74 75.0582C1276.08 75.0582 1275.25 73.9332 1275.25 71.6832ZM1291.81 67.9932C1291.13 68.0132 1290.53 68.2032 1290.01 68.5632C1289.5 68.9232 1289.14 69.4182 1288.93 70.0482V74.9082H1287.91V67.0932H1288.87V68.9682C1289.14 68.4182 1289.49 67.9732 1289.93 67.6332C1290.38 67.2932 1290.86 67.1032 1291.36 67.0632C1291.46 67.0532 1291.54 67.0482 1291.61 67.0482C1291.68 67.0482 1291.75 67.0532 1291.81 67.0632V67.9932ZM1299.98 75.0582C1299.23 75.0582 1298.56 74.8732 1297.97 74.5032C1297.38 74.1332 1296.92 73.6382 1296.58 73.0182C1296.24 72.3982 1296.07 71.7182 1296.07 70.9782C1296.07 70.2482 1296.23 69.5782 1296.56 68.9682C1296.9 68.3582 1297.37 67.8732 1297.96 67.5132C1298.55 67.1432 1299.22 66.9582 1299.97 66.9582C1300.74 66.9582 1301.41 67.1432 1301.99 67.5132C1302.57 67.8832 1303.02 68.3732 1303.34 68.9832C1303.67 69.5832 1303.84 70.2432 1303.84 70.9632C1303.84 71.1232 1303.83 71.2582 1303.82 71.3682H1297.13C1297.18 71.9282 1297.34 72.4282 1297.61 72.8682C1297.88 73.2982 1298.23 73.6432 1298.65 73.9032C1299.07 74.1532 1299.53 74.2782 1300.03 74.2782C1300.54 74.2782 1301.02 74.1482 1301.47 73.8882C1301.92 73.6282 1302.24 73.2882 1302.43 72.8682L1303.31 73.1082C1303.15 73.4882 1302.9 73.8282 1302.56 74.1282C1302.23 74.4182 1301.85 74.6482 1301.41 74.8182C1300.97 74.9782 1300.49 75.0582 1299.98 75.0582ZM1297.1 70.6332H1302.88C1302.84 70.0732 1302.68 69.5782 1302.41 69.1482C1302.14 68.7082 1301.8 68.3682 1301.38 68.1282C1300.96 67.8782 1300.49 67.7532 1299.98 67.7532C1299.47 67.7532 1299.01 67.8782 1298.59 68.1282C1298.17 68.3682 1297.82 68.7082 1297.55 69.1482C1297.29 69.5782 1297.14 70.0732 1297.1 70.6332Z" fill="white"/>
</svg>
